<?xml version="1.0" encoding="UTF-8"?>
<svg width="17px" height="17px" viewBox="0 0 17 17" version="1.1" xmlns="http://www.w3.org/2000/svg" xmlns:xlink="http://www.w3.org/1999/xlink">
    <!-- Generator: Sketch 42 (36781) - http://www.bohemiancoding.com/sketch -->
    <title>Shape</title>
    <desc>Created with Sketch.</desc>
    <defs></defs>
    <g id="Stage-4" stroke="none" stroke-width="1" fill="none" fill-rule="evenodd">
        <g id="Desktop-HD-Copy-18" transform="translate(-1325.000000, -44.000000)" fill="#444444">
            <g id="magnifying-glass" transform="translate(1325.000000, 44.000000)">
                <g id="Magnifying_glass">
                    <path d="M15.740737,13.637689 L11.9138451,9.81042968 C12.4910688,8.86348937 12.8232256,7.74944195 12.8232256,6.55943674 C12.8232256,3.09880034 9.8247004,0.101000003 6.3643962,0.101000003 C2.90409199,0.0999872331 0.1,2.9053612 0.1,6.3659976 C0.1,9.82562123 3.09852524,12.8244343 6.55781677,12.8244343 C7.70922616,12.8244343 8.78569773,12.5114883 9.71229368,11.9696561 L13.559439,15.8191964 C13.9361534,16.1949342 14.5467954,16.1949342 14.9224971,15.8191964 L15.8774479,14.8641539 C16.2531496,14.4884161 16.1164388,14.0134268 15.740737,13.637689 L15.740737,13.637689 Z M2.02812971,6.3659976 C2.02812971,3.96978287 3.96942416,2.02830205 6.3643962,2.02830205 C8.7603809,2.02830205 10.8950959,4.16220925 10.8950959,6.55943674 C10.8950959,8.9546387 8.9527888,10.8971323 6.55781677,10.8971323 C4.16183206,10.8961195 2.02812971,8.76119956 2.02812971,6.3659976 L2.02812971,6.3659976 Z" id="Shape"></path>
                </g>
            </g>
        </g>
    </g>
</svg>